{"title":"The Murder Room S01","uid":15686320,"size":1328653980,"categoryP":"video","categoryS":"tv_shows","magnet":"?xt=urn:btih:9739f2b760d53e19a4a4d4ee083b3f69abdf48c4&amp;dn=The+Murder+Room+S01&amp;tr=udp%3A%2F%2Ftracker.leechers-paradise.org%3A6969&amp;tr=udp%3A%2F%2Fzer0day.ch%3A1337&amp;tr=udp%3A%2F%2Fopen.demonii.com%3A1337&amp;tr=udp%3A%2F%2Ftracker.coppersurfer.tk%3A6969&amp;tr=udp%3A%2F%2Fexodus.desync.com%3A6969","seeders":10,"leechers":2,"uploader":"RedBaron58","files":2,"time":1472351693,"description":"The Murder Room S01 (PD James MiniSeries 2004) DVDrip x264 mp4\r\n  \nhttp://www.imdb.com/title/tt0432327/\r\n\r\nThank you for your kind comments and feedback on my other torrents, your feedback is welcome.\r\n\r\nAbout the Series:  \r\nCommander Adam Dalgliesh is already acquainted with the Dupayne, a museum dedicated to the \r\ninterwar years, with a room celebrating the most notorious murders of that time, when he is \r\ncalled to investigate the killing of one of the family trustees. He soon discovers that \r\nthe victim was seeking to close the museum against the wishes of the fellow trustees and \r\nthe Dupayne's devoted staff.\r\nStarring Martin Shaw, Janie Dee and Samantha Bond,\r\n\r\n\r\nTechnical: (Both episodes are encoded to the same settings)\r\n\r\nGeneral\r\nComplete name                            : I:The Murder Room S01P D James - The Murder Room pt1 S01E01 x264 RB58.mp4\r\nFormat                                   : MPEG-4\r\nFormat profile                           : Base Media / Version 2\r\nCodec ID                                 : mp42\r\nFile size                                : 628 MiB\r\nDuration                                 : 1h 27mn\r\nOverall bit rate mode                    : Variable\r\nOverall bit rate                         : 1 000 Kbps\r\nEncoded date                             : UTC 2016-08-19 19:02:46\r\nTagged date                              : UTC 2016-08-19 19:05:55\r\nWriting application                      : HandBrake 0.9.8 2012071700\r\n\r\nVideo\r\nID                                       : 1\r\nFormat                                   : AVC\r\nFormat/Info                              : Advanced Video Codec\r\nFormat profile                           :   \r\nFormat settings, CABAC                   : Yes\r\nFormat settings, ReFrames                : 4 frames\r\nCodec ID                                 : avc1\r\nCodec ID/Info                            : Advanced Video Coding\r\nDuration                                 : 1h 27mn\r\nBit rate                                 : 900 Kbps\r\nWidth                                    : 716 pixels\r\nHeight                                   : 576 pixels\r\nDisplay aspect ratio                     : 16:9\r\nFrame rate mode                          : Constant\r\nFrame rate                               : 25.000 fps\r\nColor space                              : YUV\r\nChroma subsampling                       : 4:2:0\r\nBit depth                                : 8 bits\r\nScan type                                : Progressive\r\nBits/(Pixel*Frame)                       : 0.087\r\nStream size                              : 565 MiB (90%)\r\nWriting library                          : x264 core 120\r\nEncoding settings                        : cabac=1 / ref=1 / deblock=1:0:0\r\nEncoded date                             : UTC 2016-08-19 19:02:46\r\nTagged date                              : UTC 2016-08-19 19:05:55\r\nColor range                              : Limited\r\nColor primaries                          : BT.601 NTSC\r\nTransfer characteristics                 : BT.709\r\nMatrix coefficients                      : BT.601\r\n\r\nAudio\r\nID                                       : 2\r\nFormat                                   : AAC\r\nFormat/Info                              : Advanced Audio Codec\r\nFormat profile                           : LC\r\nCodec ID                                 : 40\r\nDuration                                 : 1h 27mn\r\nBit rate mode                            : Variable\r\nBit rate                                 : 96.0 Kbps\r\nMaximum bit rate                         : 115 Kbps\r\nChannel(s)                               : 2 channels\r\nChannel positions                        : Front: L R\r\nSampling rate                            : 48.0 KHz\r\nCompression mode                         : Lossy\r\nStream size                              : 60.3 MiB (10%)\r\nTitle                                    : Stereo\r\nLanguage                                 : English","torrent":{"xt":"urn:btih:9739f2b760d53e19a4a4d4ee083b3f69abdf48c4","amp;dn":"The+Murder+Room+S01","amp;tr":["udp%3A%2F%2Ftracker.leechers-paradise.org%3A6969","udp%3A%2F%2Fzer0day.ch%3A1337","udp%3A%2F%2Fopen.demonii.com%3A1337","udp%3A%2F%2Ftracker.coppersurfer.tk%3A6969","udp%3A%2F%2Fexodus.desync.com%3A6969"],"infoHash":"9739f2b760d53e19a4a4d4ee083b3f69abdf48c4","infoHashBuffer":{"type":"Buffer","data":[151,57,242,183,96,213,62,25,164,164,212,238,8,59,63,105,171,223,72,196]},"announce":[],"urlList":[]}}